                                                                        S      1
,,9HShagai v2,9HShagai v2,7Hunknown,7Hunknown,32,38,7,99,15,,1.,2,2HMM, G      1
1,0.08,15H20180926.234650,0.01,10000.,10H123avneesh,7Hunknown,11,0,15H20G      2
180926.181304;                                                          G      3
     408       1                                                00000001D      1
     408       0               1       0                               0D      2
     308       2                                                00010200D      3
     308       0               1       0                               0D      4
     186       3                                                00010000D      5
     186             -77       1       0                               0D      6
     514       4                                                00010000D      7
     514                       1       1                               0D      8
     510       5                                                00010000D      9
     510             -79       1       1                               0D     10
     510       6                                                00010000D     11
     510             -79       1       1                               0D     12
     510       7                                                00010000D     13
     510             -79       1       1                               0D     14
     510       8                                                00010000D     15
     510             -79       1       1                               0D     16
     510       9                                                00010000D     17
     510             -81       1       1                               0D     18
     510      10                                                00010000D     19
     510             -83       1       1                               0D     20
     508      11                                                00010000D     21
     508                       1       1                               0D     22
     508      12                                                00010000D     23
     508                       1       1                               0D     24
     508      13                                                00010000D     25
     508                       1       1                               0D     26
     508      14                                                00010000D     27
     508                       1       1                               0D     28
     508      15                                                00010000D     29
     508                       1       1                               0D     30
     508      16                                                00010000D     31
     508                       1       1                               0D     32
     126      17                                                00010000D     33
     126       0               2       0                               0D     34
     126      19                                                00010000D     35
     126       0               2       0                               0D     36
     126      21                                                00010000D     37
     126       0               2       0                               0D     38
     126      23                                                00010000D     39
     126       0               2       0                               0D     40
     126      25                                                00010000D     41
     126       0               8       0                               0D     42
     126      33                                                00010000D     43
     126       0               8       0                               0D     44
     126      41                                                00010000D     45
     126       0               2       0                               0D     46
     126      43                                                00010000D     47
     126       0               3       0                               0D     48
     126      46                                                00010000D     49
     126       0               3       0                               0D     50
     126      49                                                00010000D     51
     126       0               2       0                               0D     52
     126      51                                                00010000D     53
     126       0               8       0                               0D     54
     126      59                                                00010000D     55
     126       0               8       0                               0D     56
     128      67                                                00010000D     57
     128       0     -79       5       0                               0D     58
     128      72                                                00010000D     59
     128       0     -79      14       0                               0D     60
     128      86                                                00010000D     61
     128       0     -79       5       0                               0D     62
     128      91                                                00010000D     63
     128       0     -79      14       0                               0D     64
     128     105                                                00010000D     65
     128       0     -81       7       0                               0D     66
     128     112                                                00010000D     67
     128       0     -83       6       0                               0D     68
     502     118                                                00010000D     69
     502                       3       1                               0D     70
     504     121                                                00010001D     71
     504                       3       1                               0D     72
     406     124                                                00000000D     73
     406                       1      15                               0D     74
     406     125                                                00000000D     75
     406                       1      15                               0D     76
     314     126                                                00000200D     77
     314                       1       0                               0D     78
     314     127                                                00000200D     79
     314                       2       0                               0D     80
     314     129                                                00000200D     81
     314                       2       0                               0D     82
     314     131                                                00000200D     83
     314                       2       0                               0D     84
     314     133                                                00000200D     85
     314                       2       0                               0D     86
408,3,0.,0.,0.,1.,0,1,75;                                              1P      1
308,0,6HShagai,1,5;                                                    3P      2
186,7,1,0,0,1,73;                                                      5P      3
514,6,9,1,11,1,13,1,15,1,17,1,19,1;                                    7P      4
510,57,1,1,21;                                                         9P      5
510,59,1,1,23;                                                        11P      6
510,61,1,1,25;                                                        13P      7
510,63,1,1,27;                                                        15P      8
510,65,1,1,29;                                                        17P      9
510,67,1,1,31;                                                        19P     10
508,4,0,71,1,0,0,0,71,2,1,0,0,71,3,0,0,0,71,4,0,0;                    21P     11
508,4,0,71,5,1,0,0,71,4,1,0,0,71,6,0,0,0,71,7,0,0;                    23P     12
508,4,0,71,8,1,0,0,71,7,1,0,0,71,9,0,0,0,71,10,0,0;                   25P     13
508,4,0,71,11,1,0,0,71,10,1,0,0,71,12,0,0,0,71,2,0,0;                 27P     14
508,4,0,71,12,1,0,0,71,9,1,0,0,71,6,1,0,0,71,3,1,0;                   29P     15
508,4,0,71,11,0,0,0,71,1,1,0,0,71,5,0,0,0,71,8,0,0;                   31P     16
126,1,1,0,0,1,0,0.,0.,26.,26.,1.,1.,-140.,0.,0.,-140.,260.,0.,        33P     17
0.,26.,0.,0.,0.;                                                      33P     18
126,1,1,0,0,1,0,0.,0.,30.,30.,1.,1.,-140.,0.,0.,-140.,0.,300.,        35P     19
0.,30.,0.,0.,0.;                                                      35P     20
126,1,1,0,0,1,0,-26.,-26.,0.,0.,1.,1.,-140.,260.,300.,-140.,0.,       37P     21
300.,-26.,0.,0.,0.,0.;                                                37P     22
126,1,1,0,0,1,0,0.,0.,30.,30.,1.,1.,-140.,260.,0.,-140.,260.,         39P     23
300.,0.,30.,0.,0.,0.;                                                 39P     24
126,6,2,0,0,0,0,0.,0.,0.,1.31233049459131,1.31233049459131,           41P     25
2.62466098918262,2.62466098918262,3.93699148377394,                   41P     26
3.93699148377394,3.93699148377394,1.,0.792337568700702,1.,            41P     27
0.792337568700703,1.,0.792337568700701,1.,30.,188.585715714571,       41P     28
0.,84.9874665457229,242.484213707164,0.,46.9339687179538,             41P     29
309.421504256203,0.,8.88047089018464,376.358794805242,0.,             41P     30
-65.5597645549077,356.678324540187,0.,-140.,336.997854275132,0.,      41P     31
-140.,260.,0.,0.,3.93699148377394,0.,0.,0.;                           41P     32
126,6,2,0,0,0,0,0.,0.,0.,1.31233049459131,1.31233049459131,           43P     33
2.62466098918262,2.62466098918262,3.93699148377394,                   43P     34
3.93699148377394,3.93699148377394,1.,0.792337568700702,1.,            43P     35
0.792337568700703,1.,0.792337568700701,1.,30.,188.585715714571,       43P     36
300.,84.9874665457229,242.484213707164,300.,46.9339687179538,         43P     37
309.421504256203,300.,8.88047089018464,376.358794805242,300.,         43P     38
-65.5597645549077,356.678324540187,300.,-140.,336.997854275132,       43P     39
300.,-140.,260.,300.,0.,3.93699148377394,0.,0.,0.;                    43P     40
126,1,1,0,0,1,0,0.,0.,30.,30.,1.,1.,30.,188.585715714571,0.,30.,      45P     41
188.585715714571,300.,0.,30.,0.,0.,0.;                                45P     42
126,1,1,0,0,1,0,0.,0.,5.18377724027979,5.18377724027979,1.,1.,        47P     43
30.,136.747943311773,0.,30.,188.585715714571,0.,0.,                   47P     44
5.18377724027979,0.,0.,0.;                                            47P     45
126,1,1,0,0,1,0,0.,0.,5.18377724027979,5.18377724027979,1.,1.,        49P     46
30.,136.747943311773,300.,30.,188.585715714571,300.,0.,               49P     47
5.18377724027979,0.,0.,0.;                                            49P     48
126,1,1,0,0,1,0,0.,0.,30.,30.,1.,1.,30.,136.747943311773,0.,30.,      51P     49
136.747943311773,300.,0.,30.,0.,0.,0.;                                51P     50
126,6,2,0,0,0,0,0.,0.,0.,1.49880949389991,1.49880949389991,           53P     51
2.99761898779982,2.99761898779982,4.49642848169973,                   53P     52
4.49642848169973,4.49642848169973,1.,0.73209448677253,1.,             53P     53
0.73209448677253,1.,0.73209448677253,1.,-140.,0.,0.,-140.,            53P     54
-130.267930737203,0.,-10.0694545175656,-139.637409334743,0.,          53P     55
119.861090964869,-149.006887932284,0.,138.551515510267,               53P     56
-20.0867506035269,0.,157.241940055665,108.83338672523,0.,30.,         53P     57
136.747943311773,0.,0.,4.49642848169973,0.,0.,0.;                     53P     58
126,6,2,0,0,0,0,0.,0.,0.,1.49880949389991,1.49880949389991,           55P     59
2.99761898779982,2.99761898779982,4.49642848169973,                   55P     60
4.49642848169973,4.49642848169973,1.,0.73209448677253,1.,             55P     61
0.73209448677253,1.,0.73209448677253,1.,-140.,0.,300.,-140.,          55P     62
-130.267930737203,300.,-10.0694545175656,-139.637409334743,300.,      55P     63
119.861090964869,-149.006887932284,300.,138.551515510267,             55P     64
-20.0867506035269,300.,157.241940055665,108.83338672523,300.,         55P     65
30.,136.747943311773,300.,0.,4.49642848169973,0.,0.,0.;               55P     66
128,1,1,1,1,0,0,1,0,0,-0.00100000000000711,-0.00100000000000711,      57P     67
26.001,26.001,-0.001,-0.001,30.001,30.001,1.,1.,1.,1.,-140.,          57P     68
260.01,-0.01,-140.,-0.0100000000000122,-0.01,-140.,260.01,            57P     69
300.01,-140.,-0.0100000000000122,300.01,-0.00100000000000711,         57P     70
26.001,-0.001,30.001;                                                 57P     71
128,1,6,1,2,0,0,0,0,0,0.,0.,3.,3.,0.,0.,0.,1.31233049459131,          59P     72
1.31233049459131,2.62466098918262,2.62466098918262,                   59P     73
3.93699148377394,3.93699148377394,3.93699148377394,1.,1.,             59P     74
0.792337568700701,0.792337568700701,1.,1.,0.792337568700701,          59P     75
0.792337568700701,1.,1.,0.792337568700701,0.792337568700701,1.,       59P     76
1.,30.,188.585715714571,300.,30.,188.585715714571,0.,                 59P     77
84.9874665457229,242.484213707164,300.,84.9874665457229,              59P     78
242.484213707164,0.,46.9339687179538,309.421504256203,300.,           59P     79
46.9339687179538,309.421504256203,0.,8.88047089018465,                59P     80
376.358794805242,300.,8.88047089018465,376.358794805242,0.,           59P     81
-65.5597645549077,356.678324540187,300.,-65.5597645549077,            59P     82
356.678324540187,0.,-140.,336.997854275132,300.,-140.,                59P     83
336.997854275132,0.,-140.,260.,300.,-140.,260.,0.,0.,3.,0.,           59P     84
3.93699148377394;                                                     59P     85
128,1,1,1,1,0,0,1,0,0,-0.001,-0.001,5.18477724027979,                 61P     86
5.18477724027979,-0.001,-0.001,30.001,30.001,1.,1.,1.,1.,30.,         61P     87
136.737943311773,-0.01,30.,188.595715714571,-0.01,30.,                61P     88
136.737943311773,300.01,30.,188.595715714571,300.01,-0.001,           61P     89
5.18477724027979,-0.001,30.001;                                       61P     90
128,1,6,1,2,0,0,0,0,0,0.,0.,2.14285714285714,2.14285714285714,        63P     91
0.,0.,0.,1.49880949389991,1.49880949389991,2.99761898779982,          63P     92
2.99761898779982,4.49642848169973,4.49642848169973,                   63P     93
4.49642848169973,1.,1.,0.73209448677253,0.73209448677253,1.,1.,       63P     94
0.73209448677253,0.73209448677253,1.,1.,0.73209448677253,             63P     95
0.73209448677253,1.,1.,-140.,0.,300.,-140.,0.,0.,-140.,               63P     96
-130.267930737203,300.,-140.,-130.267930737203,0.,                    63P     97
-10.0694545175656,-139.637409334743,300.,-10.0694545175656,           63P     98
-139.637409334743,0.,119.861090964869,-149.006887932284,300.,         63P     99
119.861090964869,-149.006887932284,0.,138.551515510267,               63P    100
-20.0867506035269,300.,138.551515510267,-20.0867506035269,0.,         63P    101
157.241940055665,108.83338672523,300.,157.241940055665,               63P    102
108.83338672523,0.,30.,136.747943311773,300.,30.,                     63P    103
136.747943311773,0.,0.,2.14285714285714,0.,4.49642848169973;          63P    104
128,1,1,1,1,0,0,1,0,0,-14.001,-14.001,15.7251940055665,               65P    105
15.7251940055665,-25.9016887932284,-25.9016887932284,                 65P    106
26.6368794805242,26.6368794805242,1.,1.,1.,1.,-140.01,                65P    107
-149.016887932284,300.,157.251940055665,-149.016887932284,300.,       65P    108
-140.01,376.368794805242,300.,157.251940055665,376.368794805242,      65P    109
300.,-14.001,15.7251940055665,-25.9016887932284,                      65P    110
26.6368794805242;                                                     65P    111
128,1,1,1,1,0,0,1,0,0,-14.001,-14.001,15.7251940055665,               67P    112
15.7251940055665,-25.9016887932284,-25.9016887932284,                 67P    113
26.6368794805242,26.6368794805242,1.,1.,1.,1.,157.251940055665,       67P    114
-149.016887932284,0.,-140.01,-149.016887932284,0.,                    67P    115
157.251940055665,376.368794805242,0.,-140.01,376.368794805242,        67P    116
0.,-14.001,15.7251940055665,-25.9016887932284,26.6368794805242;       67P    117
502,8,-140.,0.,0.,-140.,260.,0.,-140.,0.,300.,-140.,260.,300.,        69P    118
30.,188.585715714571,0.,30.,188.585715714571,300.,30.,                69P    119
136.747943311773,0.,30.,136.747943311773,300.;                        69P    120
504,12,33,69,1,69,2,35,69,1,69,3,37,69,4,69,3,39,69,2,69,4,41,        71P    121
69,5,69,2,43,69,6,69,4,45,69,5,69,6,47,69,7,69,5,49,69,8,69,6,        71P    122
51,69,7,69,8,53,69,1,69,7,55,69,3,69,8;                               71P    123
406,1,6HShagai;                                                       73P    124
406,1,8HShagai:1;                                                     75P    125
314,0.,0.,0.,11HPolystyrene;                                          77P    126
314,76.8627450980392,20.7843137254902,15.2941176470588,22HPaint       79P    127
- Metallic (Red);                                                     79P    128
314,90.9803921568627,67.843137254902,13.7254901960784,25HPaint -      81P    129
 Metallic (Yellow);                                                   81P    130
314,70.1960784313725,70.1960784313725,70.1960784313725,28HPaint       83P    131
- Enamel Glossy (Grey);                                               83P    132
314,62.7450980392157,62.7450980392157,62.7450980392157,13HSteel       85P    133
- Satin;                                                              85P    134
S      1G      3D     86P    134                                        T      1
