700 0 1 0           
30 Autodesk Translation Framework 21 ASM 224.4.0.65535 OSX 24 Wed Sep 26 23:47:07 2018 
1 9.999999999999999547e-07 1.000000000000000036e-10 
body $1 -1 $-1 $2 $-1 $3 #
rgb_color-st-attrib $-1 -1 $4 $-1 $0 0 0 0 #
lump $-1 -1 $-1 $-1 $5 $0 #
transform $-1 -1 1 0 0 0 1 0 0 0 1 0 0 0 1 no_rotate no_reflect no_shear #
ATTRIB_CUSTOM-attrib $-1 -1 $-1 $1 $0 @20 Timestamp_attrib_def 1 1537984189262402 #
shell $-1 -1 $-1 $-1 $-1 $6 $-1 $2 #
face $7 -1 $-1 $8 $9 $5 $-1 $10 forward single #
rgb_color-st-attrib $-1 -1 $11 $-1 $6 0.7686274509803922017 0.2078431372549019718 0.152941176470588247 #
face $12 -1 $-1 $13 $14 $5 $-1 $15 forward single #
loop $-1 -1 $-1 $-1 $16 $6 #
plane-surface $-1 -1 $-1 -139.9999999999999716 260 0 -1 0 0 -0 -10 -0 forward_v I I I I #
DXID-attrib $-1 -1 $17 $7 $6 @10 ASM ENTITY @1 0 #
rgb_color-st-attrib $-1 -1 $18 $-1 $8 0.7686274509803922017 0.2078431372549019718 0.152941176470588247 #
face $19 -1 $-1 $20 $21 $5 $-1 $22 forward single #
loop $-1 -1 $-1 $-1 $23 $8 #
cone-surface $-1 -1 $-1 -39.99999999999998579 260 0 0 0 1 70 -71.41428428542866413 0 1 I I 0 1 100.0000000000001137 forward I I I I #
coedge $24 -1 $-1 $25 $26 $27 $28 reversed $9 $-1 #
ATTRIB_CUSTOM-attrib $-1 -1 $-1 $11 $6 @27 NEUTRON_Material_attrib_def 1 @36 2b79be64-b789-4a62-a6c0-e334b46b1e93 #
DXID-attrib $-1 -1 $29 $12 $8 @10 ASM ENTITY @1 1 #
rgb_color-st-attrib $-1 -1 $30 $-1 $13 0.7686274509803922017 0.2078431372549019718 0.152941176470588247 #
face $31 -1 $-1 $32 $33 $5 $-1 $34 forward single #
loop $-1 -1 $-1 $-1 $35 $13 #
plane-surface $-1 -1 $-1 30.00000000000001776 136.7479433117734118 0 1 0 0 0 10 0 forward_v I I I I #
coedge $36 -1 $-1 $37 $38 $39 $40 forward $14 $-1 #
ATTRIB_CUSTOM-attrib $-1 -1 $-1 $-1 $16 @17 sketch_attrib_def 1 1 2 105 0 1 1 1 0 #
coedge $-1 -1 $-1 $41 $16 $42 $43 forward $9 $-1 #
coedge $-1 -1 $-1 $16 $41 $37 $44 reversed $9 $-1 #
coedge $45 -1 $-1 $39 $46 $16 $28 forward $47 $-1 #
edge $-1 -1 $-1 $48 0 $49 26 $16 $50 forward @7 unknown #
ATTRIB_CUSTOM-attrib $-1 -1 $-1 $18 $8 @27 NEUTRON_Material_attrib_def 1 @36 ab12b7a0-1284-4da8-85ef-c833b11910cf #
DXID-attrib $-1 -1 $51 $19 $13 @10 ASM ENTITY @1 2 #
rgb_color-st-attrib $-1 -1 $52 $-1 $20 0.7686274509803922017 0.2078431372549019718 0.152941176470588247 #
face $53 -1 $-1 $54 $55 $5 $-1 $56 forward single #
loop $-1 -1 $-1 $-1 $57 $20 #
cone-surface $-1 -1 $-1 0 0 0 0 0 1 -139.9999999999999716 0 0 1 I I 0 1 139.9999999999999716 forward I I I I #
coedge $58 -1 $-1 $59 $60 $61 $62 forward $21 $-1 #
ATTRIB_CUSTOM-attrib $-1 -1 $-1 $-1 $23 @17 sketch_attrib_def 1 1 2 108 115 0 1 1 0 #
coedge $-1 -1 $-1 $63 $23 $26 $44 forward $14 $-1 #
coedge $-1 -1 $-1 $23 $63 $59 $64 reversed $14 $-1 #
coedge $65 -1 $-1 $61 $27 $23 $40 reversed $47 $-1 #
edge $-1 -1 $-1 $66 0 $49 3.936991483773936817 $23 $67 forward @7 unknown #
coedge $-1 -1 $-1 $26 $25 $68 $69 reversed $9 $-1 #
coedge $-1 -1 $-1 $57 $70 $25 $43 reversed $33 $-1 #
edge $-1 -1 $-1 $48 0 $71 30 $42 $72 forward @7 tangent #
edge $-1 -1 $-1 $49 0 $73 30 $37 $74 forward @7 tangent #
ATTRIB_CUSTOM-attrib $-1 -1 $-1 $-1 $27 @17 sketch_attrib_def 1 1 2 105 0 1 1 1 0 #
coedge $75 -1 $-1 $27 $61 $57 $76 reversed $47 $-1 #
loop $-1 -1 $-1 $-1 $46 $54 #
vertex $-1 -1 $-1 $28 $77 #
vertex $-1 -1 $-1 $28 $78 #
straight-curve $-1 -1 $-1 -139.9999999999999716 0 0 0 10 0 F 0 F 26 #
ATTRIB_CUSTOM-attrib $-1 -1 $-1 $30 $13 @27 NEUTRON_Material_attrib_def 1 @36 86184c70-31c7-4073-adc1-9dba89e93303 #
DXID-attrib $-1 -1 $79 $31 $20 @10 ASM ENTITY @1 3 #
rgb_color-st-attrib $-1 -1 $80 $-1 $32 0.9098039215686274384 0.6784313725490196401 0.1372549019607843257 #
face $81 -1 $-1 $-1 $47 $5 $-1 $82 reversed single #
loop $-1 -1 $-1 $-1 $83 $32 #
plane-surface $-1 -1 $-1 -7.105427357601001859e-14 110.0000000000000711 300 0 0 1 10 0 0 forward_v I I I I #
coedge $84 -1 $-1 $85 $42 $46 $76 forward $33 $-1 #
ATTRIB_CUSTOM-attrib $-1 -1 $-1 $-1 $35 @17 sketch_attrib_def 1 1 2 112 111 0 1 1 0 #
coedge $-1 -1 $-1 $86 $35 $38 $64 forward $21 $-1 #
coedge $-1 -1 $-1 $35 $86 $85 $87 reversed $21 $-1 #
coedge $88 -1 $-1 $46 $39 $35 $62 reversed $47 $-1 #
edge $-1 -1 $-1 $89 0 $66 5.183777240279791698 $35 $90 forward @7 unknown #
coedge $-1 -1 $-1 $38 $37 $91 $92 reversed $14 $-1 #
edge $-1 -1 $-1 $66 0 $93 30 $59 $94 forward @7 unknown #
ATTRIB_CUSTOM-attrib $-1 -1 $-1 $-1 $39 @17 sketch_attrib_def 1 1 2 108 115 0 1 1 0 #
vertex $-1 -1 $-1 $40 $95 #
ellipse-curve $-1 -1 $-1 -39.99999999999998579 260 0 0 0 1 70 -71.41428428542866413 0 1 F 0 F 3.936991483773937262 #
coedge $-1 -1 $-1 $83 $91 $41 $69 forward $55 $-1 #
edge $-1 -1 $-1 $73 -26 $71 -0 $41 $96 forward @7 unknown #
coedge $-1 -1 $-1 $42 $85 $83 $97 reversed $33 $-1 #
vertex $-1 -1 $-1 $43 $98 #
straight-curve $-1 -1 $-1 -139.9999999999999716 0 0 0 0 10 I I #
vertex $-1 -1 $-1 $69 $99 #
straight-curve $-1 -1 $-1 -140.0000000000001137 260.0000000000000568 0 0 0 10 I I #
ATTRIB_CUSTOM-attrib $-1 -1 $-1 $-1 $46 @17 sketch_attrib_def 1 1 2 102 118 0 1 1 0 #
edge $-1 -1 $-1 $48 0 $89 4.496428481699733304 $57 $100 forward @7 unknown #
point $-1 -1 $-1 -139.9999999999999716 0 0 #
point $-1 -1 $-1 -140.0000000000001137 260.0000000000000568 0 #
ATTRIB_CUSTOM-attrib $-1 -1 $-1 $52 $20 @27 NEUTRON_Material_attrib_def 1 @36 9fd58576-9e44-47df-8345-9351963498f7 #
DXID-attrib $-1 -1 $101 $53 $32 @10 ASM ENTITY @1 4 #
rgb_color-st-attrib $-1 -1 $102 $-1 $54 0.7019607843137254388 0.7019607843137254388 0.7019607843137254388 #
plane-surface $-1 -1 $-1 -7.105427357601001859e-14 110.0000000000000711 0 0 0 1 10 0 0 forward_v I I I I #
coedge $-1 -1 $-1 $103 $68 $70 $97 forward $55 $-1 #
ATTRIB_CUSTOM-attrib $-1 -1 $-1 $-1 $57 @17 sketch_attrib_def 1 1 2 102 118 0 1 1 0 #
coedge $-1 -1 $-1 $70 $57 $60 $87 forward $33 $-1 #
coedge $-1 -1 $-1 $60 $59 $103 $104 reversed $21 $-1 #
edge $-1 -1 $-1 $89 0 $105 30 $85 $106 forward @7 unknown #
ATTRIB_CUSTOM-attrib $-1 -1 $-1 $-1 $61 @17 sketch_attrib_def 1 1 2 112 111 0 1 1 0 #
vertex $-1 -1 $-1 $62 $107 #
straight-curve $-1 -1 $-1 30.00000000000001776 136.7479433117734118 0 0 10 0 F 0 F 5.183777240279791698 #
coedge $-1 -1 $-1 $68 $103 $63 $92 forward $55 $-1 #
edge $-1 -1 $-1 $93 0 $73 3.936991483773936817 $63 $108 forward @7 unknown #
vertex $-1 -1 $-1 $92 $109 #
straight-curve $-1 -1 $-1 30.00000000000001776 188.5857157145713359 0 0 0 10 I I #
point $-1 -1 $-1 30.00000000000001776 188.5857157145713359 0 #
straight-curve $-1 -1 $-1 -139.9999999999999716 0 300 -0 -10 -0 I I #
edge $-1 -1 $-1 $71 0 $105 4.496428481699733304 $70 $110 forward @7 unknown #
point $-1 -1 $-1 -139.9999999999999716 0 300 #
point $-1 -1 $-1 -140.0000000000001137 260.0000000000000568 300 #
ellipse-curve $-1 -1 $-1 0 0 0 0 0 1 -139.9999999999999716 0 0 1 F 0 F 4.496428481699733304 #
ATTRIB_CUSTOM-attrib $-1 -1 $-1 $80 $32 @27 NEUTRON_Material_attrib_def 1 @36 424cb59e-8816-4735-8833-e8d1f68a1fa3 #
DXID-attrib $-1 -1 $111 $81 $54 @10 ASM ENTITY @1 5 #
coedge $-1 -1 $-1 $91 $83 $86 $104 forward $55 $-1 #
edge $-1 -1 $-1 $105 0 $93 5.183777240279791698 $86 $112 forward @7 unknown #
vertex $-1 -1 $-1 $104 $113 #
straight-curve $-1 -1 $-1 30.00000000000003553 136.7479433117734118 0 0 0 10 I I #
point $-1 -1 $-1 30.00000000000003553 136.7479433117734118 0 #
ellipse-curve $-1 -1 $-1 -39.99999999999998579 260 300 0 0 1 70 -71.41428428542866413 0 1 I I #
point $-1 -1 $-1 30.00000000000001776 188.5857157145713359 300 #
ellipse-curve $-1 -1 $-1 0 0 300 0 0 1 -139.9999999999999716 0 0 1 I I #
ATTRIB_CUSTOM-attrib $-1 -1 $-1 $102 $54 @27 NEUTRON_Material_attrib_def 1 @36 47878dda-7034-4a1c-a3c2-b0fc0c7b8434 #
straight-curve $-1 -1 $-1 30.00000000000001776 136.7479433117734118 300 0 10 0 I I #
point $-1 -1 $-1 30.00000000000001776 136.7479433117734118 300 #
End-of-ACIS-data 